<svg width="70" height="74" fill="none" xmlns="http://www.w3.org/2000/svg"><path d="M69.774 40.806c.544 3.502.06 6.886-.969 10.09-1.029 3.384-2.542 6.59-4.842 9.438-3.026 3.8-6.476 7.123-11.075 9.2-1.453.653-2.845 1.603-4.358 2.078-1.816.594-3.57 1.365-5.508 1.424-.302 0-.665-.059-.907.06-3.33 1.306-6.84.83-10.229.771-1.937-.059-3.873-.83-5.81-1.127-3.692-.653-6.96-2.315-10.047-4.215-2.421-1.424-4.72-3.146-6.658-5.223-1.936-2.137-3.752-4.392-5.144-6.885-1.513-2.671-2.542-5.46-3.329-8.429-1.21-4.214-.908-8.487-.726-12.702.12-2.552.968-5.104 1.937-7.538 1.936-4.69 4.78-8.844 8.533-12.405 1.09-1.01 2.24-1.84 3.33-2.79.241-.178.483-.534.544-.831.726-4.748 3.57-7.835 7.807-9.972C24.744.504 27.286-.15 30.01.03c2.118.178 4.176.653 6.113 1.662 2.844 1.484 5.75 2.908 8.655 4.392 2.3 1.128 4.539 2.493 6.9 3.383 2.36.89 4.296 2.612 6.838 3.087 1.695 1.721 4.6 1.603 5.992 3.917-.787 1.544-2.542 1.722-3.873 2.197-2.724.95-5.447 1.84-8.05 2.849-3.631 1.424-7.323 2.611-10.894 4.036-2.36.95-4.782 1.9-7.202 2.67-2.724.891-5.569.95-8.413.535-2.482-.356-4.66-1.543-6.476-3.027-1.816-1.484-3.51-3.265-4.176-5.58-1.15-.771-.545-2.077-.908-3.145-1.453.059-2.24 1.068-2.966 1.958-1.634 2.018-3.329 4.096-4.66 6.351-1.816 2.671-2.845 5.58-3.329 8.726-.242 1.78-.666 3.561-.787 5.342-.181 1.959.485 3.858.727 5.817.302 2.136.907 4.095 1.694 6.054a29.753 29.753 0 006.537 9.794c3.692 3.739 7.989 6.529 13.012 8.072 1.937.594 3.934 1.128 6.053 1.365 2.178.238 4.357.416 6.476.297 4.72-.356 9.26-1.365 13.557-3.561 2.966-1.544 5.629-3.384 7.989-5.699 2.905-2.849 5.084-6.173 6.415-9.971.787-2.256 1.453-4.57 1.514-7.004.06-.95.302-1.84.363-2.79.12-1.603.665-1.84 2.179-1.187.12.06.242.119.363.178.12 0 .12.06.12.06zm-52.11-26.532h-1.211c-.121 1.9.484 3.502 1.15 5.046 1.513 3.383 4.055 5.698 7.625 6.885 2.18.712 4.48.95 6.598.237 4.539-1.484 8.957-3.264 13.496-4.748 2.905-.95 5.75-2.196 8.716-3.087 1.997-.593 3.873-1.543 5.931-2.374-.363-.297-.545-.534-.847-.653-8.231-3.977-16.523-7.954-24.694-12.05-1.755-.83-3.631-1.127-5.386-1.127-1.574 0-3.269.356-4.903 1.069-3.45 1.543-5.87 3.739-6.96 7.36-.242.89-.484 1.602-.242 2.611h3.026c.424 1.01 1.634-.118 2.179.89-1.574-.059-3.026-.059-4.479-.059z" fill="#fff"/><path d="M50.346 49.175c-3.147.059-5.326-1.247-6.84-3.918-2.3-4.095-.302-9.08 4.298-10.505 3.873-1.187 7.807.06 9.865 3.62.666 1.188.908 2.85.726 4.215-.423 2.67-1.694 4.985-4.6 5.935-1.089.356-2.3.475-3.45.653zm-4.055-7.42c0 2.434 2.118 4.57 4.357 4.511 2.119-.059 4.237-2.314 4.237-4.57.06-2.374-1.876-4.214-4.297-4.332-2.36-.06-4.6 1.899-4.297 4.392zM17.3 37.72v2.315h6.415c.182.415.364.652.424.89.545 1.662.182 2.196-1.513 2.196h-5.387c-.06.83-.06 1.602-.12 2.612h7.928c.363 1.068.181 2.018.242 3.205H13.548v-12.94c0-1.365.242-1.662 1.452-1.602 3.329.118 6.718.297 10.168.475v2.433c-.666.119-1.453.534-2.179.416-1.755-.297-3.57.296-5.69 0zm23.422-.89c-.726.77-1.452 1.542-2.118 2.255-2.784-2.493-4.6-1.9-6.294-.713-1.937 1.425-1.816 4.333-.727 5.757 1.695 2.196 3.995 2.315 6.96.475a72.752 72.752 0 002.361 2.018c-2.36 2.73-5.387 2.552-8.352 2.255-1.937-.237-3.45-1.543-4.358-3.205-2.3-4.332-.908-8.487 2.966-10.505 1.452-.771 3.086-1.009 4.781-.83 2.724.237 3.087.474 4.781 2.492zM26.318 19.142c-.303-.534-.666-1.069-.847-1.662-1.03-2.85-1.877-2.909-3.934-2.79-1.03.06-2.119 0-3.148-.06-.242 0-.484-.237-.665-.415h4.478c-.605-1.009-1.755.178-2.179-.89h2.906c1.634 0 1.815-.178 2.481-1.603.545-1.306 1.15-2.611 1.755-3.917.303-.594.727-1.069 1.09-1.603.726.416.908.712.544 1.484-.786 1.484-1.452 3.087-2.178 4.69-.182.355-.182.77-.364 1.424h4.66c.303 0 .606.237.909.356-1.453 0-2.966.06-4.66.06.786.771 1.875-.179 2.36.771h-3.269c.242 1.068.424 1.9.545 2.671-.847.356-.363 1.069-.484 1.484z" fill="#fff"/><path d="M29.526 15.104c-.485-.95-1.513 0-2.36-.771 1.694 0 3.146-.06 4.66-.06h1.15c.847.06 1.331-.237 1.634-1.127.242-.89.847-1.662 1.27-2.434.666.06.485.594.545.95a33.305 33.305 0 00-.786 2.255c0 .06.242.238.302.416.424 1.068 1.634-.178 2.179.83-.726 0-1.392-.059-2.058 0-.181 0-.363.297-.544.476.302.89.605 1.78.907 2.611v1.306l-.847-.416c-.363-.95-.605-1.958-1.029-2.849-.363-.771-.968-1.246-1.997-1.187-1.09.12-2.058.06-3.026 0z" fill="#fff"/><path d="M35.397 15.64c.181-.178.363-.475.544-.475.666-.06 1.271 0 2.058 0-.545-1.01-1.755.178-2.179-.89 2.542.118 5.145.237 7.687.356-.121 1.127-1.332 0-1.634.771.423.594 1.452-.356 1.634.653-2.663-.118-5.387-.237-8.11-.415zm12.286-.476c1.573.119 3.268-.237 4.963.356-.908.95-1.514 1.246-2.542.95-1.695-.534-3.39-.238-5.084-.356h-.485v-.89c1.03-.06 2.058-.06 3.148-.06zm-21.365 3.978c.121-.475-.363-1.128.484-1.366.303.535.605 1.069.847 1.662.303.772.545 1.603.848 2.552-.484.238-.969.594-1.332-.237-.302-.83-1.029-1.543-.847-2.611z" fill="#fff"/><path d="M47.683 15.164h-3.208c0-.415.06-.89-.545-.949.121-.415.182-1.127.363-1.187.848-.178.364-.534.242-.89-.06-.119.182-.356.303-.475.06-.06.303.06.363.178.848.95.303 1.84-.242 2.67.847.653 1.997-.296 2.724.653zm-3.208.891h.484c.303.89.605 1.72.847 2.611.061.238-.12.772-.363.89-.363.179-.847.12-.968-.534-.121-.712-.363-1.365-.484-2.077.605-.06.484-.534.484-.89z" fill="#fff"/><path d="M44.475 16.056c0 .356.121.83-.484.89-.121-.297-.303-.593-.424-.89-.242-1.01-1.21-.119-1.634-.653.303-.772 1.513.356 1.634-.772.121-.178.242-.297.424-.475.605.06.544.534.544.95-.06.356-.06.653-.06.95zm-8.171-4.394c-.06-.416.121-.89-.544-.95.181-.475.302-.95.544-1.424.363-.594.848-.475 1.392.06-.423.711-.907 1.542-1.392 2.314zm-.847 7.478c.242.12.484.238.847.416V18.25c.303.594.666 1.188.848 1.84.06.238-.182.713-.424.772-.242.06-.726-.119-.847-.356-.242-.356-.303-.89-.424-1.365z" fill="#fff"/></svg>