<svg width="59" height="54" fill="none" xmlns="http://www.w3.org/2000/svg"><path d="M2.294 52.327l-.59.134c-.153 0-.284.022-.437.022a.197.197 0 00-.153-.067c.132-.29.24-.58.372-.87.284-.513.546-1.048.83-1.56a.365.365 0 00.066-.202c.153-.111.284-.223.437-.312l4.785 1.205c.088.959.153 1.918.24 2.877-.13.134-.261.29-.414.424-.765-.647-1.486-1.495-2.623-.58-.087.067-.546-.156-.611-.313-.35-1.048-.984-1.248-1.902-.758zm-.59-5.219c-.021-.09-.065-.156-.087-.245-.044-.068-.087-.134-.131-.224 0-.067-.022-.156-.066-.2C.94 44.565.48 42.69 0 40.818a.266.266 0 00.11-.112c.021-1.249.021-2.476.043-3.725 0-.267-.022-.557-.022-.825.328-1.093.656-2.208.983-3.301.044-.09.088-.178.153-.268.044-.067.11-.134.153-.2.263-.447.525-.893.787-1.316a115.95 115.95 0 002.535-2.097c.087-.045.153-.111.24-.156a.348.348 0 00.197-.067.9.9 0 00.24-.156c.284-.09.568-.179.83-.268.241-.045.481-.111.722-.156.48-.022.983-.045 1.464-.09.175-.133.328-.267.502-.4.219-.447.416-.893.634-1.317.11-.223.219-.446.306-.646.175-.246.371-.447.524-.714 2.448-4.127 5.682-7.495 9.637-10.127 2.338-1.561 4.786-2.944 7.517-3.725l.983-.401c.197-1.182.416-2.387.612-3.569.11-.334.219-.669.306-1.004.94-1.918 2.382-3.39 4.152-4.55.131-.089.262-.156.415-.245a.348.348 0 00.197-.067c.218-.112.459-.245.677-.357.525-.2 1.027-.401 1.552-.602C37.17.245 37.869.112 38.59 0c.131.09.284.178.416.29.021.067.065.156.087.223.065.09.11.156.175.245.743 2.967 1.355 5.911.175 8.922-.022.045.196.246.284.246.633-.156 1.245-.335 1.879-.513l3.103-.134c2.272.29 4.195 1.45 6.097 2.632.306.223.611.446.896.669l.458.401c-.043.513.088 1.183-.174 1.517-1.224 1.628-2.579 3.19-3.89 4.751-.24.268-.503.513-.765.758.328.09.656.223.983.268 2.513.357 4.568 1.54 6.36 3.346 1.529 1.561 2.447 3.457 3.277 5.442.044.134.087.29.131.424.262 1.048.525 2.074.787 3.123.022.133.044.29.065.423.11.96-.371 1.45-1.245 1.629-1.595.334-3.169.669-4.764 1.003-.786-.022-1.551-.022-2.338-.044-2.731-.357-5.244-1.25-7.408-3.056-.328-.312-.655-.647-.983-.96l-.044-.066-2.12-3.435c-.546 1.383-1.136 2.9-1.726 4.439-.065.089-.109.156-.174.245-1.465 1.561-2.95 3.1-4.415 4.662h-.371c-.503-.469-1.114-.87-1.486-1.428-1.093-1.628-2.098-3.345-3.125-5.018-.022-.067-.022-.156-.043-.223a2.048 2.048 0 00-.154-.313c-.371-1.717-.611-3.434-.218-5.174.022-.134 0-.268 0-.402-.131.045-.284.09-.393.156-1.967 1.272-4.152 1.919-6.425 2.41-1.092-.491-.83-1.584-1.027-2.477.044-1.516.088-3.033.153-4.55.153-.758.328-1.539.48-2.297.372-.602.722-1.205 1.093-1.807a7.02 7.02 0 00.263-.424c.022-.044.043-.089.065-.156l-.13.067c-.132.09-.263.156-.416.245-.437.313-.874.603-1.333.915-.48.334-.94.67-1.42.981-.656.402-.94.915-.787 1.74.284 1.383.503 2.81.743 4.194a365.215 365.215 0 011.88 4.282c.261.602.458 1.271 1.354 1.07 2.163-.512 3.868.402 5.376 1.83 1.354 1.606 2.076 3.546 2.666 5.553l.065.67c.044.223.11.468.153.691.175 2.476-.284 4.818-1.333 7.048-1.377 1.205-3.147 1.406-4.786 1.919-3.758-1.896-6.337-4.818-7.495-8.99.022-.066.044-.133.066-.178.153-1.65.306-3.3.437-4.974.568-.691 1.114-1.427 1.726-2.096.306-.313.568-.513.262-1.004-1.617-2.61-2.6-5.465-3.037-8.52-.11-.692-.306-.513-.612-.179-1.945 2.03-3.496 4.372-4.807 6.87-.066.134.109.625.262.67 2.6.87 4.043 2.765 4.742 5.397.043.111.087.2.13.312-.02.045-.02.09.023.134.022 1.182.022 2.387.044 3.569-.503 3.658-2.033 6.803-4.415 9.546-1.158.826-2.316 1.673-3.474 2.498-.437-.022-.874.023-1.29-.066-1.092-.246-2.184-.603-3.277-.803-.765-.134-1.333-.491-1.726-1.16-.022-.067-.066-.156-.088-.223-.043-.067-.109-.157-.153-.223a.365.365 0 00-.065-.201c0-.09-.066-.156-.11-.223zM34.22 13.16h-.022c.153-.134.306-.29.459-.424 1.246-.156 1.486-.401 1.53-1.561.699.089.699-.38.677-.893.809-.223.962-.825.874-1.583h-.022c.918-.424.284-1.25.437-1.874-.13-1.249-.284-2.498-.415-3.747-.087-.78-.437-.848-1.114-.602-4.59 1.65-6.468 5.04-5.463 9.948.306 1.45.459 1.583 1.9 1.383.372-.045.897.223.875-.491l.022.045c.109-.045.196-.134.262-.201zm5.55-1.026c-.218.156-.437.312-.633.468l-.022-.067.022.067c-.569-.134-.787.156-.874.67v-.023l-.219.223.022.045c-1.049-.201-.765.713-.962 1.226-.546-.022-.677.313-.611.803 0 .045 0 .09-.044.112-.525-.045-.896.112-.874.758.022.491-.088 1.071.7 1.004.698.402 1.376.825 2.097 1.16 2.862 1.36 5.66 1.405 8.194-.714 1.137-.959 2.032-2.208 3.038-3.323.437-.491.284-.803-.219-1.138-2.25-1.472-4.61-2.542-7.364-2.208-.393.134-.808.29-1.202.424-.043.044-.087.044-.13.044-.329.157-.635.313-.919.469 0 0-.022 0 0 0zm-2.447 18.691l.437-.446c.087-.379.218-.78.24-1.16.022-1.249-.022-2.498-.043-3.725l.021.023a1.508 1.508 0 00-.152-.246c-.46-1.918-1.443-3.546-2.645-5.063-.393-.49-.742-.58-1.114-.089-1.07 1.383-2.316 2.677-3.125 4.216-.546 1.07-.699 2.498-.634 3.747.132 2.721 1.618 4.84 3.322 6.847.131.112.328.313.35.29.612-.58 1.551-.914 1.507-2.007l.022-.022c.153-.201.306-.424.481-.625h-.022c.7-.178.918-.67.874-1.338h-.022c.175-.134.328-.268.503-.402zm10.51-8.654a75.74 75.74 0 01-2.337-.223c.021.045.043.111.087.156.022.022.066.022.11.022-1.028.223-2.077.38-3.082.67-1.092.312-1.508.981-1.29 2.096.503 2.543 1.596 4.773 3.672 6.38 3.43 2.654 7.255 2.654 11.232 1.74.612-.135.612-.536.502-1.005-1.223-4.929-3.605-8.765-8.893-9.836zm-25.37.558c0 .49.023.959 0 1.45-.043.802.328 1.048.984.736 1.464-.714 3.016-1.316 4.327-2.253 1.398-1.004 2.403-2.454 2.862-4.216.59-2.342-1.136-4.126-3.387-3.457-.765.223-1.53.691-2.141 1.227-1.967 1.695-2.775 3.925-2.644 6.513z" fill="#fff"/><path d="M17.197 37.784c-.087-1.137-.174-2.297-.262-3.434.24-.514.48-1.026.7-1.517a414.833 414.833 0 01-.438 4.951zm20.06-7.449c.59-1.562.809-3.19.678-4.863.022 1.25.065 2.498.043 3.725 0 .38-.153.78-.24 1.16-.131 0-.284 0-.415.022l-.066-.044zm-3.649 4.572l1.88-1.717c.021 1.093-.918 1.427-1.508 2.007-.044.022-.24-.178-.372-.29zm1.049-22.193l1.53-1.562c-.044 1.16-.284 1.428-1.53 1.562zM20.54 25.004c-.043-1.183-.065-2.365-.108-3.57.087-.334.174-.668.24-1.003l-.131 4.573zm15.887-9.346c-.131.58-1.049 1.093-.153 1.762-.787.067-.677-.513-.7-1.004-.043-.669.329-.803.853-.758zm1.617-2.141c-.328.401-.634.825-.961 1.226.196-.513-.088-1.405.961-1.226zm-2.098 19.048c.284-.446.59-.892.874-1.338.044.669-.153 1.182-.874 1.338zm.918-22.283c.284-.535.59-1.048.874-1.583.088.758-.065 1.36-.874 1.583zm10.97 11.889c-.721 0-1.443-.022-2.164-.022-.043 0-.087 0-.109-.023a.362.362 0 01-.087-.156l2.36.201z" fill="#fff"/><path d="M37.716 8.721c.153-.624.284-1.249.437-1.873-.13.624.481 1.45-.437 1.873zm-1.529 2.454c.218-.29.459-.58.677-.893.022.491.022.96-.677.893zm2.928 1.427c-.284.223-.568.446-.874.67.087-.514.306-.826.874-.67zm-6.031 1.228c.284-.157.59-.335.874-.492 0 .736-.525.469-.874.491zm8.937-2.61c-.393.133-.808.29-1.202.423.394-.156.787-.29 1.202-.424zM36.82 31.227c.153-.29.284-.602.437-.892l.066.067v.446c-.175.111-.328.245-.503.379zm-8.915-20.32l.655-.134-.983.402c.11-.112.218-.179.328-.268zm9.178 3.836c-.197.268-.416.536-.612.803-.066-.49.065-.803.612-.803zm.24 16.082v-.446c.131 0 .284 0 .415-.022-.13.156-.284.312-.415.468zM25.108 47.554c1.005-.312 2.01-.58 2.994-.96.568-.222.961-.155 1.332.313l.918 1.606c-.59.067-1.18.112-1.77.178-.459.157-.896.313-1.355.469h.022c-.196-.045-.415-.067-.612-.112-.043.067-.109.09-.174.112-.11.134-.24.268-.35.401-.087.112-.153.246-.24.357-.153.156-.328.268-.481.402-.066-.223-.197-.446-.219-.67-.043-.713-.043-1.405-.065-2.096z" fill="#fff"/><path d="M27.227 49.138c.46-.157.896-.313 1.355-.469-.524 1.16-.524 1.16-1.355.469z" fill="#fff"/></svg>