<svg width="39" height="39" fill="none" xmlns="http://www.w3.org/2000/svg"><g filter="url(#filter0_d_9_122)"><circle cx="19.5" cy="15.5" r="15.5" fill="#337D5A"/><g clip-path="url(#clip0_9_122)"><path d="M22.27 22.261a.554.554 0 01-.31-.095l-3.52-2.388-1.889 1.359a.555.555 0 01-.86-.309l-.948-3.593-3.387-1.295a.554.554 0 01-.007-1.032l12.88-5.125a.555.555 0 01.76.621l-2.174 11.407a.554.554 0 01-.545.45zm-3.522-3.613l3.136 2.127 1.691-8.876-6.11 5.88 1.268.86.015.01zm-2.61-.473l.42 1.591.904-.65-1.184-.804a.552.552 0 01-.14-.137zm-3.06-2.763l2.327.89a.554.554 0 01.338.376l.295 1.118a.555.555 0 01.167-.342l5.821-5.602-8.947 3.56z" fill="#fff"/></g></g><defs><clipPath id="clip0_9_122"><path fill="#fff" transform="translate(11 9)" d="M0 0h14v14H0z"/></clipPath><filter id="filter0_d_9_122" x="0" y="0" width="39" height="39" filterUnits="userSpaceOnUse" color-interpolation-filters="sRGB"><feFlood flood-opacity="0" result="BackgroundImageFix"/><feColorMatrix in="SourceAlpha" values="0 0 0 0 0 0 0 0 0 0 0 0 0 0 0 0 0 0 127 0" result="hardAlpha"/><feOffset dy="4"/><feGaussianBlur stdDeviation="2"/><feComposite in2="hardAlpha" operator="out"/><feColorMatrix values="0 0 0 0 0 0 0 0 0 0 0 0 0 0 0 0 0 0 0.25 0"/><feBlend in2="BackgroundImageFix" result="effect1_dropShadow_9_122"/><feBlend in="SourceGraphic" in2="effect1_dropShadow_9_122" result="shape"/></filter></defs></svg>