<svg width="31" height="31" fill="none" xmlns="http://www.w3.org/2000/svg"><circle cx="15.5" cy="15.5" r="15.5" fill="#337D5A"/><path d="M24 15.307c0 4.035-3.297 7.307-7.364 7.307a7.382 7.382 0 01-3.56-.909L9 23l1.329-3.921a7.232 7.232 0 01-1.056-3.772C9.273 11.27 12.569 8 16.637 8 20.704 8.001 24 11.272 24 15.307zm-7.365-6.142c-3.413 0-6.19 2.756-6.19 6.144 0 1.344.438 2.588 1.18 3.6l-.774 2.281 2.378-.756a6.189 6.189 0 003.406 1.016c3.414 0 6.192-2.755 6.192-6.143 0-3.386-2.778-6.142-6.192-6.142zm3.72 7.825c-.046-.074-.167-.119-.347-.209-.18-.09-1.068-.523-1.233-.581-.166-.06-.287-.09-.407.089-.119.18-.465.582-.571.703-.105.12-.21.135-.39.046-.181-.09-.763-.279-1.453-.889a5.388 5.388 0 01-1.004-1.24c-.106-.18-.01-.276.079-.365.08-.08.18-.21.27-.315.091-.104.121-.177.181-.297s.03-.224-.015-.315c-.045-.09-.405-.97-.556-1.329-.15-.358-.3-.299-.406-.299-.105 0-.226-.014-.346-.014a.661.661 0 00-.481.223c-.165.18-.631.612-.631 1.493 0 .883.646 1.733.736 1.853.091.119 1.25 1.987 3.084 2.704 1.836.716 1.836.477 2.167.447.331-.03 1.068-.433 1.217-.85.151-.42.151-.78.106-.855z" fill="#fff"/></svg>