<svg width="9" height="11" fill="none" xmlns="http://www.w3.org/2000/svg"><path d="M4.5 5.38c1.223 0 2.215-1.205 2.215-2.69C6.715 1.204 6.389 0 4.5 0 2.611 0 2.285 1.204 2.285 2.69c0 1.485.992 2.69 2.215 2.69zM.317 9.487c0-.09 0-.026 0 0zm8.366.071c0-.025 0-.172 0 0zm-.005-.18c-.041-2.588-.379-3.325-2.965-3.792 0 0-.364.464-1.213.464-.849 0-1.213-.464-1.213-.464C.73 6.048.371 6.774.323 9.294c-.003.206-.005.217-.006.193v.272S.933 11 4.5 11c3.567 0 4.183-1.241 4.183-1.241v-.201a1.67 1.67 0 01-.005-.18z" fill="#93B474"/></svg>