<svg width="13" height="13" fill="none" xmlns="http://www.w3.org/2000/svg"><path d="M9.487 0H3.513A3.517 3.517 0 000 3.513v5.974A3.517 3.517 0 003.513 13h5.974A3.517 3.517 0 0013 9.487V3.513A3.517 3.517 0 009.487 0zm2.463 9.487a2.465 2.465 0 01-2.463 2.463H3.513A2.465 2.465 0 011.05 9.487V3.513A2.465 2.465 0 013.513 1.05h5.974a2.465 2.465 0 012.463 2.463v5.974z" fill="#323232"/><path d="M9.41 6.047a2.895 2.895 0 00-.823-1.634 2.913 2.913 0 00-4.403.325 2.896 2.896 0 00-.542 2.164c.114.77.522 1.45 1.147 1.913a2.893 2.893 0 002.164.543A2.896 2.896 0 008.867 8.21a2.896 2.896 0 00.542-2.164zM6.8 8.319a1.852 1.852 0 01-1.385-.347c-.4-.297-.66-.732-.734-1.224-.073-.493.05-.985.347-1.385a1.853 1.853 0 011.771-.733A1.85 1.85 0 018.37 6.2 1.867 1.867 0 016.8 8.32zm3.358-5.477a.529.529 0 00-.743 0 .528.528 0 000 .743.529.529 0 00.743 0 .529.529 0 000-.743z" fill="#323232"/></svg>